<svg width="90" height="42" viewBox="0 0 90 42" fill="none" xmlns="http://www.w3.org/2000/svg">
<path d="M27.8789 6.36565C24.7851 6.56253 23.9765 7.2844 25.664 8.26878C26.0156 8.46565 26.7539 8.90862 27.3867 9.25315C27.9844 9.59769 28.4766 9.9094 28.4766 9.95862C28.4766 9.99144 27.6328 10.2539 26.5781 10.5328C21.164 11.9274 15.3984 13.9946 12.0586 15.7008C6.57421 18.5227 3.83202 21.2953 3.55077 24.2977C3.16405 28.2844 7.76952 32.0086 16.664 34.8633C18.7383 35.536 19.7226 35.7657 20.25 35.7C20.8125 35.6344 21.164 35.3063 21.164 34.8469C21.164 34.3547 21.5508 33.6164 22.0781 33.1571C22.6758 32.6157 23.5547 32.1891 25.6992 31.418C28.7226 30.3352 30.3398 29.4657 31.5351 28.3008C32.0976 27.743 32.168 27.3328 31.6758 27.1196C31.2187 26.9063 30.5859 26.9227 28.7578 27.2672C25.3125 27.9071 22.3594 28.1367 18.5976 28.0711C15.75 28.0219 14.0976 27.8578 11.9883 27.3821C10.0898 26.9555 8.99999 26.4961 8.29686 25.8563C6.74999 24.3961 8.54296 22.6242 13.0078 21.2297C13.7812 21 14.8711 20.7047 15.4336 20.5735C16.3828 20.3766 16.4883 20.3602 16.875 20.475C17.1914 20.5571 17.332 20.6555 17.3672 20.8524C17.3672 21 17.3672 21.1477 17.2969 21.1969C17.2265 21.2461 16.4531 21.4594 15.6094 21.6891C12.1289 22.575 10.1601 23.625 9.98436 24.675L9.91405 25.1344L10.6172 24.8555C12.832 23.9696 16.664 23.4774 22.289 23.3789C25.7695 23.3133 28.0547 23.4282 31.9219 23.8383C34.8398 24.15 36.9141 24.3305 38.6719 24.4453L39.4101 24.4946L38.6719 25.2164C38.25 25.6102 37.8984 26.086 37.8281 26.2664C37.6172 27.2344 39.7617 27.5789 42.8906 27.0539C45.5273 26.6274 49.289 25.7086 52.6289 24.7078C53.8945 24.3141 54.2812 24.2321 55.3711 24.15C64.2656 23.4117 71.7539 21.9352 77.5898 19.7367C80.8945 18.4899 84.0586 16.7508 85.7109 15.3071L86.4844 14.6016L85.3594 13.9782C79.1719 10.5821 69.8203 8.46565 58.5351 7.92425C55.9687 7.793 50.5547 7.76019 47.8476 7.84222C46.2656 7.89144 46.1953 7.89144 45.1406 7.66175C42.7851 7.16956 39.3398 6.71019 36.1055 6.4805C34.0664 6.33284 29.2851 6.26722 27.8789 6.36565ZM46.793 10.7461C47.1445 10.8774 47.1797 10.8938 47.1094 12.4196C47.0391 15.5367 47.8476 18.2274 49.3594 19.7203C49.9922 20.3602 51.1172 20.9016 52.3828 21.1969C53.6836 21.4922 54 21.6891 53.6836 21.9844C53.332 22.3453 52.8047 22.3617 51.539 22.0828C50.2031 21.7875 48.5156 21.0328 47.8125 20.4586C46.7226 19.5399 45.7031 17.6367 45.2812 15.6516C45.0703 14.6836 45 11.2711 45.1758 10.9594C45.2812 10.7789 45.7734 10.5985 46.2305 10.5985C46.3359 10.5985 46.582 10.6477 46.793 10.7461ZM67.289 12.7313C68.0273 12.9282 68.5195 13.4696 68.414 13.8961C68.2031 14.7657 65.8828 15.2742 64.4062 14.7657C63.0351 14.2899 62.8594 13.3383 64.0547 12.8297C64.8984 12.4852 66.2695 12.436 67.289 12.7313Z" fill="white"/>
</svg>
